<svg width="145" height="145" viewBox="0 0 145 145" fill="none" xmlns="http://www.w3.org/2000/svg">
<path d="M72.5 145C91.7282 145 110.169 137.362 123.765 123.765C137.362 110.169 145 91.7282 145 72.5C145 53.2718 137.362 34.8311 123.765 21.2348C110.169 7.63837 91.7282 0 72.5 0C53.2718 0 34.8311 7.63837 21.2348 21.2348C7.63837 34.8311 0 53.2718 0 72.5C0 91.7282 7.63837 110.169 21.2348 123.765C34.8311 137.362 53.2718 145 72.5 145ZM72.5 36.25C76.2666 36.25 79.2969 39.2803 79.2969 43.0469V74.7656C79.2969 78.5322 76.2666 81.5625 72.5 81.5625C68.7334 81.5625 65.7031 78.5322 65.7031 74.7656V43.0469C65.7031 39.2803 68.7334 36.25 72.5 36.25ZM63.4375 99.6875C63.4375 97.284 64.3923 94.9789 66.0918 93.2793C67.7914 91.5798 70.0965 90.625 72.5 90.625C74.9035 90.625 77.2086 91.5798 78.9082 93.2793C80.6077 94.9789 81.5625 97.284 81.5625 99.6875C81.5625 102.091 80.6077 104.396 78.9082 106.096C77.2086 107.795 74.9035 108.75 72.5 108.75C70.0965 108.75 67.7914 107.795 66.0918 106.096C64.3923 104.396 63.4375 102.091 63.4375 99.6875Z" fill="black"/>
</svg>
