<?xml version="1.0" encoding="UTF-8"?>
<!DOCTYPE svg PUBLIC "-//W3C//DTD SVG 1.1//EN" "http://www.w3.org/Graphics/SVG/1.1/DTD/svg11.dtd">
<svg xmlns="http://www.w3.org/2000/svg" version="1.1" width="2000px" height="1870px" style="shape-rendering:geometricPrecision; text-rendering:geometricPrecision; image-rendering:optimizeQuality; fill-rule:evenodd; clip-rule:evenodd" xmlns:xlink="http://www.w3.org/1999/xlink">
<g><path style="opacity:0.992" fill="#fefffe" d="M 4.5,-0.5 C 203.5,-0.5 402.5,-0.5 601.5,-0.5C 769.328,225.131 937.662,450.465 1106.5,675.5C 1315.53,450.473 1524.19,225.14 1732.5,-0.5C 1791.17,-0.5 1849.83,-0.5 1908.5,-0.5C 1667.86,260.554 1426.86,521.387 1185.5,782C 1456.74,1144.4 1727.74,1506.9 1998.5,1869.5C 1799.83,1869.5 1601.17,1869.5 1402.5,1869.5C 1220.42,1625.68 1038.09,1382.02 855.5,1138.5C 629.472,1381.86 403.805,1625.53 178.5,1869.5C 119.833,1869.5 61.1667,1869.5 2.5,1869.5C 260.376,1590.27 518.376,1311.1 776.5,1032C 518.783,688.042 261.45,343.875 4.5,-0.5 Z M 264.5,129.5 C 354.834,129.333 445.167,129.5 535.5,130C 536,130.5 536.5,131 537,131.5C 938.378,668.423 1339.88,1205.26 1741.5,1742C 1650.6,1742.83 1559.76,1742.67 1469,1741.5C 1067.24,1204.29 665.738,666.953 264.5,129.5 Z"/></g>
</svg>
